<svg xmlns="http://www.w3.org/2000/svg" width="312.994" height="303.669" viewBox="0 0 312.994 303.669">
  <g id="_01d" data-name="01d" transform="translate(-935 -884)">
    <path id="Tracé_1" data-name="Tracé 1" d="M1102.09,1118.754c-42.421,0-76.99-32.475-76.99-72.327s34.568-72.327,76.99-72.327,76.99,32.475,76.99,72.327S1144.511,1118.754,1102.09,1118.754Zm0-130.189c-33.953,0-61.592,25.965-61.592,57.862s27.639,57.862,61.592,57.862,61.592-25.965,61.592-57.862S1136.042,988.565,1102.09,988.565Z" transform="translate(-10.504 -10.504)" fill="#fff"/>
    <path id="Tracé_2" data-name="Tracé 2" d="M1123.834,949.373a8.86,8.86,0,0,1-8.834-8.834v-47.7a8.834,8.834,0,1,1,17.668,0v47.7A8.86,8.86,0,0,1,1123.834,949.373Z" transform="translate(-32.337)" fill="#fff"/>
    <path id="Tracé_3" data-name="Tracé 3" d="M1123.834,1255.373a8.86,8.86,0,0,1-8.834-8.834v-47.7a8.834,8.834,0,0,1,17.668,0v47.7A8.86,8.86,0,0,1,1123.834,1255.373Z" transform="translate(-32.337 -67.704)" fill="#fff"/>
    <path id="Tracé_4" data-name="Tracé 4" d="M991.539,1081.668h-47.7a8.834,8.834,0,1,1,0-17.668h47.7a8.834,8.834,0,1,1,0,17.668Z" transform="translate(0 -37)" fill="#fff"/>
    <path id="Tracé_5" data-name="Tracé 5" d="M1297.539,1081.668h-47.7a8.834,8.834,0,0,1,0-17.668h47.7a8.834,8.834,0,0,1,0,17.668Z" transform="translate(-58.379 -37)" fill="#fff"/>
    <path id="Tracé_6" data-name="Tracé 6" d="M1212.331,988.665a9.049,9.049,0,0,1-6.272-2.562,8.8,8.8,0,0,1,0-12.456l34.188-34.188a8.808,8.808,0,0,1,12.456,12.456L1218.515,986.1A8.542,8.542,0,0,1,1212.331,988.665Z" transform="translate(-54.004 -6.164)" fill="#fff"/>
    <path id="Tracé_7" data-name="Tracé 7" d="M996.531,1204.465a9.049,9.049,0,0,1-6.272-2.562,8.8,8.8,0,0,1,0-12.456l34.188-34.188a8.808,8.808,0,0,1,12.456,12.456l-34.188,34.188A8.691,8.691,0,0,1,996.531,1204.465Z" transform="translate(-6.141 -63.352)" fill="#fff"/>
    <path id="Tracé_8" data-name="Tracé 8" d="M1030.82,988.665a9.049,9.049,0,0,1-6.272-2.562l-34.188-34.188a8.808,8.808,0,0,1,12.456-12.456L1037,973.647a8.79,8.79,0,0,1-6.184,15.018Z" transform="translate(-6.153 -6.164)" fill="#fff"/>
    <path id="Tracé_9" data-name="Tracé 9" d="M1246.62,1204.465a9.049,9.049,0,0,1-6.272-2.562l-34.188-34.188a8.808,8.808,0,0,1,12.456-12.456l34.188,34.188a8.79,8.79,0,0,1-6.184,15.018Z" transform="translate(-54.016 -63.352)" fill="#fff"/>
  </g>
</svg>
