<svg xmlns="http://www.w3.org/2000/svg" width="459.7" height="420" viewBox="0 0 459.7 420">
  <g id="_02d" data-name="02d" transform="translate(-1436.3 -854)">
    <path id="Tracé_1" data-name="Tracé 1" d="M1762.8,1124a10.2,10.2,0,0,1-7.8-3.7,10.018,10.018,0,0,1,1.5-14.1,79.993,79.993,0,1,0-129.9-71.1,9.961,9.961,0,1,1-19.8-2.2,100.016,100.016,0,1,1,162.4,88.9A10.558,10.558,0,0,1,1762.8,1124Z" fill="#fff"/>
    <path id="Tracé_2" data-name="Tracé 2" d="M1706,928a10.029,10.029,0,0,1-10-10V864a10,10,0,0,1,20,0v54A10.029,10.029,0,0,1,1706,928Z" fill="#fff"/>
    <path id="Tracé_3" data-name="Tracé 3" d="M1580,1054h-54a10,10,0,0,1,0-20h54a10,10,0,0,1,0,20Z" fill="#fff"/>
    <path id="Tracé_4" data-name="Tracé 4" d="M1886,1054h-54a10,10,0,0,1,0-20h54a10,10,0,0,1,0,20Z" fill="#fff"/>
    <path id="Tracé_5" data-name="Tracé 5" d="M1794.5,965.5a10.243,10.243,0,0,1-7.1-2.9,9.959,9.959,0,0,1,0-14.1l38.7-38.7a9.97,9.97,0,0,1,14.1,14.1l-38.7,38.7A9.669,9.669,0,0,1,1794.5,965.5Z" fill="#fff"/>
    <path id="Tracé_6" data-name="Tracé 6" d="M1617.5,965.5a10.243,10.243,0,0,1-7.1-2.9l-38.7-38.7a9.97,9.97,0,0,1,14.1-14.1l38.7,38.7a9.95,9.95,0,0,1-7,17Z" fill="#fff"/>
    <path id="Tracé_7" data-name="Tracé 7" d="M1833.3,1181.3a10.243,10.243,0,0,1-7.1-2.9l-38.7-38.7a9.97,9.97,0,0,1,14.1-14.1l38.7,38.7a9.95,9.95,0,0,1-7,17Z" fill="#fff"/>
    <path id="Tracé_8" data-name="Tracé 8" d="M1506,1274c-38.5-.3-69.7-31.7-69.7-70a69.84,69.84,0,0,1,54.3-68.3,49.13,49.13,0,0,1-.8-8.6,47.65,47.65,0,0,1,47.6-47.6,47.123,47.123,0,0,1,24.4,6.7,106.091,106.091,0,0,1,189.3,47.9,70.032,70.032,0,0,1-4,139.9Zm31.4-174.4a27.655,27.655,0,0,0-27.6,27.6,28.211,28.211,0,0,0,2.9,12.4,10.213,10.213,0,0,1-.3,9.6,9.9,9.9,0,0,1-8.2,4.9,50.023,50.023,0,0,0,1.9,100h240.8a50,50,0,0,0-.6-100c-1,0-2.1,0-3.5.1a9.926,9.926,0,0,1-10.7-9.3,85.994,85.994,0,0,0-159.4-38.9,10.071,10.071,0,0,1-15.7,1.8A27.467,27.467,0,0,0,1537.4,1099.6Z" fill="#fff"/>
  </g>
</svg>
