<svg xmlns="http://www.w3.org/2000/svg" width="443.438" height="361.9" viewBox="0 0 443.438 361.9">
  <g id="_02n" data-name="02n" transform="translate(-2007.3 -890.1)">
    <path id="Tracé_1" data-name="Tracé 1" d="M2077,1252c-38.5-.3-69.7-31.7-69.7-70a69.84,69.84,0,0,1,54.3-68.3,49.13,49.13,0,0,1-.8-8.6,47.65,47.65,0,0,1,47.6-47.6,47.122,47.122,0,0,1,24.4,6.7,106.091,106.091,0,0,1,189.3,47.9,70.032,70.032,0,0,1-4,139.9Zm31.4-174.4a27.655,27.655,0,0,0-27.6,27.6,28.213,28.213,0,0,0,2.9,12.4,10.213,10.213,0,0,1-.3,9.6,9.9,9.9,0,0,1-8.2,4.9,50.023,50.023,0,0,0,1.9,100h240.8a50,50,0,0,0-.6-100c-1,0-2.1,0-3.5.1a10.253,10.253,0,0,1-7.3-2.4,9.975,9.975,0,0,1-3.4-6.9,85.994,85.994,0,0,0-159.4-38.9,10.071,10.071,0,0,1-15.7,1.8A27.465,27.465,0,0,0,2108.4,1077.6Z" fill="#fff"/>
    <path id="Tracé_2" data-name="Tracé 2" d="M2376.2,1127.2a9.987,9.987,0,0,1-2.3-19.7,99.53,99.53,0,0,0,48.1-27,120.123,120.123,0,0,1-92.2-116.8,118.5,118.5,0,0,1,12.4-53.2,100.034,100.034,0,0,0-91.4,96.8,10,10,0,1,1-20-.6,119.891,119.891,0,0,1,119.9-116.6c3.2,0,6.5.1,9.8.4a10.253,10.253,0,0,1,8.3,5.7,9.98,9.98,0,0,1-.9,10,99,99,0,0,0-18.1,57.4,99.909,99.909,0,0,0,91.8,99.7,9.963,9.963,0,0,1,7.3,15.7,120.391,120.391,0,0,1-70.6,47.9A6.231,6.231,0,0,1,2376.2,1127.2Z" fill="#fff"/>
  </g>
</svg>
