<svg xmlns="http://www.w3.org/2000/svg" width="380.1" height="229.7" viewBox="0 0 380.1 229.7">
  <path id="_03d" data-name="03d" d="M389.5,783.7c-38.5-.3-69.7-31.7-69.7-70a69.84,69.84,0,0,1,54.3-68.3,49.13,49.13,0,0,1-.8-8.6,47.65,47.65,0,0,1,47.6-47.6,47.121,47.121,0,0,1,24.4,6.7,106.091,106.091,0,0,1,189.3,47.9,70.032,70.032,0,0,1-4,139.9Zm31.4-174.5a27.655,27.655,0,0,0-27.6,27.6,28.212,28.212,0,0,0,2.9,12.4,10.213,10.213,0,0,1-.3,9.6,9.9,9.9,0,0,1-8.2,4.9,50.023,50.023,0,0,0,1.9,100H630.4a50,50,0,0,0-.6-100c-1,0-2.1,0-3.5.1a9.926,9.926,0,0,1-10.7-9.3,85.994,85.994,0,0,0-159.4-38.9,10.071,10.071,0,0,1-15.7,1.8A27.467,27.467,0,0,0,420.9,609.2Z" transform="translate(-319.8 -554)" fill="#fff"/>
</svg>
