<svg xmlns="http://www.w3.org/2000/svg" width="380.1" height="336.4" viewBox="0 0 380.1 336.4">
  <g id="_09n" data-name="09n" transform="translate(-935 -1534.5)">
    <path id="Tracé_1" data-name="Tracé 1" d="M1245.6,1764.1H1235l-230.3-.1a69.935,69.935,0,0,1-15.4-138.1,49.13,49.13,0,0,1-.8-8.6,47.65,47.65,0,0,1,47.6-47.6,47.123,47.123,0,0,1,24.4,6.7,106.091,106.091,0,0,1,189.3,47.9,69.98,69.98,0,0,1-4,139.8Zm-10.6-20h10.5a50,50,0,0,0-.5-100c-1.2,0-2.4.1-3.5.2a9.926,9.926,0,0,1-10.7-9.3,85.994,85.994,0,0,0-159.4-38.9,10.071,10.071,0,0,1-15.7,1.8,27.648,27.648,0,0,0-47.2,19.5,28.211,28.211,0,0,0,2.9,12.4,10.213,10.213,0,0,1-.3,9.6,9.9,9.9,0,0,1-8.2,4.9,49.921,49.921,0,0,0,1.8,99.8H1235Z" fill="#fff"/>
    <path id="Tracé_2" data-name="Tracé 2" d="M1090,1870.9a10.243,10.243,0,0,1-7.1-2.9,9.959,9.959,0,0,1,0-14.1l25-25A9.97,9.97,0,0,1,1122,1843l-25,25A9.6,9.6,0,0,1,1090,1870.9Z" fill="#fff"/>
    <path id="Tracé_3" data-name="Tracé 3" d="M1003,1813.9a10.243,10.243,0,0,1-7.1-2.9,9.959,9.959,0,0,1,0-14.1l15.8-15.8a9.97,9.97,0,0,1,14.1,14.1L1010,1811A9.6,9.6,0,0,1,1003,1813.9Z" fill="#fff"/>
    <path id="Tracé_4" data-name="Tracé 4" d="M1142,1813.9a10.243,10.243,0,0,1-7.1-2.9,9.959,9.959,0,0,1,0-14.1l15.8-15.8a9.97,9.97,0,0,1,14.1,14.1L1149,1811A9.6,9.6,0,0,1,1142,1813.9Z" fill="#fff"/>
    <path id="Tracé_5" data-name="Tracé 5" d="M1187,1839.1a10.243,10.243,0,0,1-7.1-2.9,9.959,9.959,0,0,1,0-14.1l41-40.9a9.97,9.97,0,0,1,14.1,14.1l-41,40.9A10.01,10.01,0,0,1,1187,1839.1Z" fill="#fff"/>
    <path id="Tracé_6" data-name="Tracé 6" d="M1036,1850.1a10.243,10.243,0,0,1-7.1-2.9,9.959,9.959,0,0,1,0-14.1l52-51.9a9.97,9.97,0,0,1,14.1,14.1l-52,51.9A10.01,10.01,0,0,1,1036,1850.1Z" fill="#fff"/>
  </g>
</svg>
