<svg xmlns="http://www.w3.org/2000/svg" width="414.816" height="471.916" viewBox="0 0 414.816 471.916">
  <g id="_10d" data-name="10d" transform="translate(-2567.5 -840.884)">
    <path id="Tracé_1" data-name="Tracé 1" d="M2868.5,1073.5a9.5,9.5,0,0,1-6.5-16.4,71.311,71.311,0,0,0,22.5-52.3,72.035,72.035,0,0,0-142.9-12.9,9.494,9.494,0,1,1-18.7-3.3,91.03,91.03,0,1,1,152.2,82.3A9.834,9.834,0,0,1,2868.5,1073.5Z" fill="#fff"/>
    <path id="Tracé_2" data-name="Tracé 2" d="M2784.3,905.8a9.5,9.5,0,0,1-9.3-7.5l-10-45.9a9.513,9.513,0,0,1,18.6-4l10,45.9a9.483,9.483,0,0,1-7.3,11.3A7.144,7.144,0,0,1,2784.3,905.8Z" fill="#fff"/>
    <path id="Tracé_3" data-name="Tracé 3" d="M2923.9,994.6a9.505,9.505,0,0,1-2-18.8l48.9-10.7a9.513,9.513,0,1,1,4,18.6l-48.9,10.7A12.3,12.3,0,0,1,2923.9,994.6Z" fill="#fff"/>
    <path id="Tracé_4" data-name="Tracé 4" d="M2872.8,921.9a9.506,9.506,0,0,1-8-14.6l26.8-41.8a9.487,9.487,0,1,1,16,10.2l-26.8,41.8A9.6,9.6,0,0,1,2872.8,921.9Z" fill="#fff"/>
    <path id="Tracé_5" data-name="Tracé 5" d="M2716,956.1a9.463,9.463,0,0,1-5.1-1.5l-41.8-26.8a9.487,9.487,0,0,1,10.2-16l41.8,26.8a9.5,9.5,0,0,1-5.1,17.5Z" fill="#fff"/>
    <path id="Tracé_6" data-name="Tracé 6" d="M2947.8,1105.6a9.463,9.463,0,0,1-5.1-1.5l-41.8-26.8a9.487,9.487,0,0,1,10.2-16l41.8,26.8a9.519,9.519,0,0,1,2.9,13.1A9.363,9.363,0,0,1,2947.8,1105.6Z" fill="#fff"/>
    <path id="Tracé_7" data-name="Tracé 7" d="M2631.1,1213.6a63.921,63.921,0,0,1-14.5-126.1,45.254,45.254,0,0,1-.6-7.4,43.638,43.638,0,0,1,43.6-43.6,44.184,44.184,0,0,1,22,5.9,95.534,95.534,0,0,1,76.6-37.8,96.735,96.735,0,0,1,95.3,81.4,63.888,63.888,0,0,1-4,127.6Zm28.5-158.1a24.647,24.647,0,0,0-24.6,24.6,24.4,24.4,0,0,0,2.6,11,9.491,9.491,0,0,1-.3,9.1,9.628,9.628,0,0,1-7.8,4.7,44.87,44.87,0,0,0,1.7,89.7h218.2a44.9,44.9,0,0,0-.6-89.8c-.9,0-1.9,0-3.2.1a9.649,9.649,0,0,1-6.9-2.3,9.258,9.258,0,0,1-3.2-6.5,77.462,77.462,0,0,0-143.6-35.1,9.341,9.341,0,0,1-7,4.5,10,10,0,0,1-7.9-2.7A24.365,24.365,0,0,0,2659.6,1055.5Z" fill="#fff"/>
    <path id="Tracé_8" data-name="Tracé 8" d="M2714.5,1312.8a9.227,9.227,0,0,1-6.7-2.8,9.476,9.476,0,0,1,0-13.4l22.7-22.7a9.475,9.475,0,0,1,13.4,13.4l-22.7,22.7A9.391,9.391,0,0,1,2714.5,1312.8Z" fill="#fff"/>
    <path id="Tracé_9" data-name="Tracé 9" d="M2635.6,1261.2a9.227,9.227,0,0,1-6.7-2.8,9.476,9.476,0,0,1,0-13.4l14.3-14.3a9.475,9.475,0,0,1,13.4,13.4l-14.3,14.3A9.067,9.067,0,0,1,2635.6,1261.2Z" fill="#fff"/>
    <path id="Tracé_10" data-name="Tracé 10" d="M2761.6,1261.2a9.227,9.227,0,0,1-6.7-2.8,9.476,9.476,0,0,1,0-13.4l14.3-14.3a9.475,9.475,0,0,1,13.4,13.4l-14.3,14.3A9.391,9.391,0,0,1,2761.6,1261.2Z" fill="#fff"/>
    <path id="Tracé_11" data-name="Tracé 11" d="M2802.3,1284a9.227,9.227,0,0,1-6.7-2.8,9.476,9.476,0,0,1,0-13.4l37.1-37.1a9.475,9.475,0,0,1,13.4,13.4l-37.1,37.1A9.067,9.067,0,0,1,2802.3,1284Z" fill="#fff"/>
    <path id="Tracé_12" data-name="Tracé 12" d="M2665.5,1293.9a9.227,9.227,0,0,1-6.7-2.8,9.476,9.476,0,0,1,0-13.4l47.1-47.1a9.475,9.475,0,0,1,13.4,13.4l-47.1,47.1A9.067,9.067,0,0,1,2665.5,1293.9Z" fill="#fff"/>
  </g>
</svg>
