<svg xmlns="http://www.w3.org/2000/svg" width="409.938" height="438.1" viewBox="0 0 409.938 438.1">
  <g id="_10n" data-name="10n" transform="translate(-2574.1 -1483)">
    <path id="Tracé_1" data-name="Tracé 1" d="M2639.1,1817.6a65.225,65.225,0,0,1-15.2-128.6,44.041,44.041,0,0,1-.6-7.3,44.624,44.624,0,0,1,66.8-38.7,98.36,98.36,0,0,1,175,44.4,65.2,65.2,0,0,1-4.4,130.2Zm28.9-160.5a24.594,24.594,0,0,0-22,35.6,10.213,10.213,0,0,1-.3,9.6,9.9,9.9,0,0,1-8.2,4.9,45.221,45.221,0,0,0,1.7,90.4h221.6a45.2,45.2,0,0,0-.5-90.4c-.9,0-1.9,0-3.2.1a9.926,9.926,0,0,1-10.7-9.3,78.4,78.4,0,0,0-145.3-35.5,10.071,10.071,0,0,1-15.7,1.8A24.1,24.1,0,0,0,2668,1657.1Z" fill="#fff"/>
    <path id="Tracé_2" data-name="Tracé 2" d="M2921.2,1700.9a9.968,9.968,0,0,1-2.9-19.5,91.725,91.725,0,0,0,36.8-22,111.264,111.264,0,0,1-73.1-155.9,91.248,91.248,0,0,0-81.7,83.9,9.978,9.978,0,1,1-19.9-1.5A111.344,111.344,0,0,1,2891.3,1483c3,0,6,.1,9,.4a9.963,9.963,0,0,1,7.3,15.7,91.227,91.227,0,0,0,67.3,143.3,9.963,9.963,0,0,1,7.3,15.7,111.96,111.96,0,0,1-58.1,42.4A13.534,13.534,0,0,1,2921.2,1700.9Z" fill="#fff"/>
    <path id="Tracé_3" data-name="Tracé 3" d="M2729.3,1921.1a10.243,10.243,0,0,1-7.1-2.9,9.959,9.959,0,0,1,0-14.1l23-23a9.97,9.97,0,1,1,14.1,14.1l-23,23A9.6,9.6,0,0,1,2729.3,1921.1Z" fill="#fff"/>
    <path id="Tracé_4" data-name="Tracé 4" d="M2649.2,1868.7a10.243,10.243,0,0,1-7.1-2.9,9.959,9.959,0,0,1,0-14.1l14.5-14.5a9.97,9.97,0,1,1,14.1,14.1l-14.5,14.5A10.01,10.01,0,0,1,2649.2,1868.7Z" fill="#fff"/>
    <path id="Tracé_5" data-name="Tracé 5" d="M2777.1,1868.7a10.243,10.243,0,0,1-7.1-2.9,9.959,9.959,0,0,1,0-14.1l14.5-14.5a9.97,9.97,0,1,1,14.1,14.1l-14.5,14.5A9.838,9.838,0,0,1,2777.1,1868.7Z" fill="#fff"/>
    <path id="Tracé_6" data-name="Tracé 6" d="M2818.5,1891.8a10.243,10.243,0,0,1-7.1-2.9,9.959,9.959,0,0,1,0-14.1l37.7-37.7a9.97,9.97,0,0,1,14.1,14.1l-37.7,37.7A9.669,9.669,0,0,1,2818.5,1891.8Z" fill="#fff"/>
    <path id="Tracé_7" data-name="Tracé 7" d="M2679.6,1901.9a10.243,10.243,0,0,1-7.1-2.9,9.959,9.959,0,0,1,0-14.1l47.9-47.8a9.97,9.97,0,1,1,14.1,14.1l-47.9,47.8A9.6,9.6,0,0,1,2679.6,1901.9Z" fill="#fff"/>
  </g>
</svg>
