<svg xmlns="http://www.w3.org/2000/svg" width="380.1" height="336.3" viewBox="0 0 380.1 336.3">
  <g id="_11n" data-name="11n" transform="translate(-405 -1534.6)">
    <path id="Tracé_1" data-name="Tracé 1" d="M715.6,1764.1H705a10,10,0,0,1,0-20h10.5a50,50,0,0,0-.5-100c-1.2,0-2.4.1-3.5.2a10.106,10.106,0,0,1-7.3-2.4,9.975,9.975,0,0,1-3.4-6.9,85.994,85.994,0,0,0-159.4-38.9,10.071,10.071,0,0,1-15.7,1.8,27.648,27.648,0,0,0-47.2,19.5,28.211,28.211,0,0,0,2.9,12.4,10.213,10.213,0,0,1-.3,9.6,9.9,9.9,0,0,1-8.2,4.9,49.921,49.921,0,0,0,1.8,99.8H485a10,10,0,0,1,0,20H474.7A69.935,69.935,0,0,1,459.3,1626a49.13,49.13,0,0,1-.8-8.6,47.65,47.65,0,0,1,47.6-47.6,47.122,47.122,0,0,1,24.4,6.7,106.091,106.091,0,0,1,189.3,47.9,69.98,69.98,0,0,1-4,139.8Z" fill="#fff"/>
    <path id="Tracé_2" data-name="Tracé 2" d="M501,1858.1a10.243,10.243,0,0,1-7.1-2.9,9.959,9.959,0,0,1,0-14.1l43-43H511a10.03,10.03,0,0,1-6.9-17.3l63-59.8a9.974,9.974,0,1,1,13.7,14.5L536,1778.1h25a9.873,9.873,0,0,1,9.2,6.2,10.056,10.056,0,0,1-2.2,10.9l-60,60.1A9.994,9.994,0,0,1,501,1858.1Z" fill="#fff"/>
    <path id="Tracé_3" data-name="Tracé 3" d="M603,1822.9a10.243,10.243,0,0,1-7.1-2.9,9.959,9.959,0,0,1,0-14.1l42.9-42.9H613a10.03,10.03,0,0,1-6.9-17.3l63-60.1a9.972,9.972,0,0,1,13.8,14.4L638,1742.9h25a9.873,9.873,0,0,1,9.2,6.2A10.056,10.056,0,0,1,670,1760l-60,59.9A9.324,9.324,0,0,1,603,1822.9Z" fill="#fff"/>
    <path id="Tracé_4" data-name="Tracé 4" d="M552,1870.9a10.243,10.243,0,0,1-7.1-2.9,9.959,9.959,0,0,1,0-14.1l25-25A9.97,9.97,0,0,1,584,1843l-25,25A9.6,9.6,0,0,1,552,1870.9Z" fill="#fff"/>
    <path id="Tracé_5" data-name="Tracé 5" d="M461,1837.9a10.243,10.243,0,0,1-7.1-2.9,9.959,9.959,0,0,1,0-14.1l15.8-15.8a9.97,9.97,0,0,1,14.1,14.1L468,1835A9.6,9.6,0,0,1,461,1837.9Z" fill="#fff"/>
    <path id="Tracé_6" data-name="Tracé 6" d="M640,1851.9a10.243,10.243,0,0,1-7.1-2.9,9.959,9.959,0,0,1,0-14.1l52-51.9a9.97,9.97,0,0,1,14.1,14.1L647,1849A9.6,9.6,0,0,1,640,1851.9Z" fill="#fff"/>
  </g>
</svg>
