<svg xmlns="http://www.w3.org/2000/svg" width="380.1" height="383.5" viewBox="0 0 380.1 383.5">
  <g id="_13d" data-name="13d" transform="translate(-1475 -1512.5)">
    <path id="Tracé_1" data-name="Tracé 1" d="M1785.6,1742.1H1775l-230.3-.1a69.935,69.935,0,0,1-15.4-138.1,49.13,49.13,0,0,1-.8-8.6,47.65,47.65,0,0,1,47.6-47.6,47.123,47.123,0,0,1,24.4,6.7,106.091,106.091,0,0,1,189.3,47.9,69.98,69.98,0,0,1-4,139.8Zm-10.6-20h10.5a50,50,0,0,0-.5-100c-1.2,0-2.4.1-3.5.2a9.926,9.926,0,0,1-10.7-9.3,85.994,85.994,0,0,0-159.4-38.9,10.071,10.071,0,0,1-15.7,1.8,27.648,27.648,0,0,0-47.2,19.5,28.211,28.211,0,0,0,2.9,12.4,10.213,10.213,0,0,1-.3,9.6,9.9,9.9,0,0,1-8.2,4.9,49.921,49.921,0,0,0,1.8,99.8H1775Z" fill="#fff"/>
    <path id="Tracé_2" data-name="Tracé 2" d="M1569,1877.1a10.243,10.243,0,0,1-7.1-2.9,9.959,9.959,0,0,1,0-14.1l61.9-61.8a9.97,9.97,0,1,1,14.1,14.1l-61.9,61.8A9.837,9.837,0,0,1,1569,1877.1Z" fill="#fff"/>
    <path id="Tracé_3" data-name="Tracé 3" d="M1630.9,1877.1a10.243,10.243,0,0,1-7.1-2.9l-61.8-61.9a9.97,9.97,0,0,1,14.1-14.1l61.8,61.9a9.95,9.95,0,0,1-7,17Z" fill="#fff"/>
    <path id="Tracé_4" data-name="Tracé 4" d="M1650,1846H1550a10,10,0,0,1,0-20h0l100,.1a9.95,9.95,0,1,1,0,19.9Z" fill="#fff"/>
    <path id="Tracé_5" data-name="Tracé 5" d="M1599.9,1896h0a9.944,9.944,0,0,1-10-9.9l.1-100a10.029,10.029,0,0,1,10-10h0a10.051,10.051,0,0,1,10,10.1l-.1,100A9.924,9.924,0,0,1,1599.9,1896Z" fill="#fff"/>
    <path id="Tracé_6" data-name="Tracé 6" d="M1707.7,1832.7a10.186,10.186,0,0,1-8.7-5,9.984,9.984,0,0,1,3.6-13.7l60.5-35.2a10.016,10.016,0,1,1,10.1,17.3l-60.5,35.2A9.257,9.257,0,0,1,1707.7,1832.7Z" fill="#fff"/>
    <path id="Tracé_7" data-name="Tracé 7" d="M1768.7,1831.8a10.652,10.652,0,0,1-4.8-1.2l-61.5-33.4a10.024,10.024,0,1,1,9.6-17.6l61.5,33.4a10.007,10.007,0,0,1-4.8,18.8Z" fill="#fff"/>
    <path id="Tracé_8" data-name="Tracé 8" d="M1737.9,1850h0a10.2,10.2,0,0,1-10-10.2V1771a10.029,10.029,0,0,1,10-10h0a9.881,9.881,0,0,1,10,9.9v69A10.051,10.051,0,0,1,1737.9,1850Z" fill="#fff"/>
  </g>
</svg>
