<svg xmlns="http://www.w3.org/2000/svg" width="350.4" height="246.8" viewBox="0 0 350.4 246.8">
  <g id="_50n" data-name="50n" transform="translate(-2045.6 -1577)">
    <path id="Tracé_1" data-name="Tracé 1" d="M2335,1712H2081.9c-19.7,0-36.3-16.9-36.3-37,0-20.4,16.3-37,36.2-37,20,0,36.2,16.5,36.2,36.7a10,10,0,0,1-20,0c0-9.1-7.4-16.7-16.2-16.7s-16.2,7.8-16.2,17,7.5,17,16.3,17H2335a10,10,0,0,1,0,20Z" fill="#fff"/>
    <path id="Tracé_2" data-name="Tracé 2" d="M2386,1669H2181.1c-25.1,0-45.6-20.6-45.6-46s20.3-46,45.4-46c25,0,45.3,20.6,45.3,45.8a10,10,0,0,1-20,0c0-14.2-11.3-25.8-25.3-25.8s-25.4,11.7-25.4,26c0,14.1,11.7,26,25.6,26H2386a10,10,0,0,1,0,20Z" fill="#fff"/>
    <path id="Tracé_3" data-name="Tracé 3" d="M2114.4,1823.8a45.643,45.643,0,0,1-32.1-13,44.381,44.381,0,0,1-13.4-31.9c0-24.8,20.4-44.9,45.5-44.9H2364a10,10,0,0,1,0,20H2114.5c-14.3,0-25.5,10.9-25.5,24.9s11.2,24.9,25.4,24.9a24.993,24.993,0,0,0,25.4-25.1,10,10,0,0,1,20,0A45.367,45.367,0,0,1,2114.4,1823.8Z" fill="#fff"/>
  </g>
</svg>
